<?xml version="1.0" encoding="UTF-8"?>
<!DOCTYPE svg PUBLIC "-//W3C//DTD SVG 1.1//EN" "http://www.w3.org/Graphics/SVG/1.1/DTD/svg11.dtd">
<svg xmlns="http://www.w3.org/2000/svg" version="1.1" width="480px" height="520px" style="shape-rendering:geometricPrecision; text-rendering:geometricPrecision; image-rendering:optimizeQuality; fill-rule:evenodd; clip-rule:evenodd" xmlns:xlink="http://www.w3.org/1999/xlink">
<g><path style="opacity:1" fill="#4bcfea" d="M 293.5,9.5 C 294.987,10.8036 296.654,11.9702 298.5,13C 306.117,15.3125 313.45,17.9792 320.5,21C 316.68,21.6051 312.68,21.6051 308.5,21C 307.206,23.0903 306.206,25.0903 305.5,27C 302.643,25.9584 300.31,26.7917 298.5,29.5C 296.314,30.2208 294.147,30.8875 292,31.5C 289.578,31.3989 287.078,30.7322 284.5,29.5C 276.019,29.9973 267.686,31.3307 259.5,33.5C 256.208,32.1993 253.041,31.5326 250,31.5C 249.784,33.3839 249.117,35.0506 248,36.5C 245.766,36.6263 243.432,36.2929 241,35.5C 236.705,38.1151 233.871,41.7818 232.5,46.5C 230.533,46.2606 228.699,46.5939 227,47.5C 225.837,45.7148 225.17,43.7148 225,41.5C 223.204,42.767 221.371,42.767 219.5,41.5C 216.266,43.5717 215.933,45.905 218.5,48.5C 217.406,50.8362 216.073,50.8362 214.5,48.5C 213.722,44.5502 212.055,41.0502 209.5,38C 205.909,37.5498 203.409,39.0498 202,42.5C 200.848,39.5597 199.848,36.5597 199,33.5C 197.608,36.2784 197.108,39.2784 197.5,42.5C 195.396,42.2011 193.396,42.5344 191.5,43.5C 192.025,44.1924 192.692,44.6924 193.5,45C 189.5,45.3333 185.5,45.6667 181.5,46C 170.76,49.6897 160.093,53.6897 149.5,58C 147.281,62.5385 143.615,65.2052 138.5,66C 136.753,68.0967 134.42,68.7634 131.5,68C 122.75,73.4161 115.584,80.5827 110,89.5C 108.211,87.771 106.044,87.1043 103.5,87.5C 103.328,89.4918 103.995,91.1585 105.5,92.5C 104.372,93.2621 103.205,93.9288 102,94.5C 100.951,93.4829 99.7839,93.3162 98.5,94C 99.1095,96.0581 100.109,96.8914 101.5,96.5C 100.252,101.317 97.7524,102.317 94,99.5C 93.005,96.8738 92.6717,94.2071 93,91.5C 96.97,88.1366 99.47,83.97 100.5,79C 103.211,79.0972 105.044,80.5972 106,83.5C 107,82.8333 108,82.1667 109,81.5C 109,79.5 109,77.5 109,75.5C 110.734,74.7511 112.567,74.2511 114.5,74C 115.315,72.057 116.315,70.057 117.5,68C 121.704,67.2027 125.371,65.3694 128.5,62.5C 130.123,63.4756 131.457,62.9756 132.5,61C 130.649,60.1628 128.816,59.3295 127,58.5C 125.618,62.5476 122.784,64.7142 118.5,65C 116.457,66.708 114.79,68.708 113.5,71C 111.954,69.7692 110.287,69.1026 108.5,69C 110.641,67.6924 112.641,66.1924 114.5,64.5C 121.102,54.2355 129.768,45.9022 140.5,39.5C 141.246,38.2638 141.579,36.9305 141.5,35.5C 181.652,8.52452 225.985,-1.64214 274.5,5C 281.054,6.26021 287.388,7.76021 293.5,9.5 Z"/></g>
<g><path style="opacity:1" fill="#41c0dc" d="M 293.5,9.5 C 311.848,13.8442 328.848,21.1775 344.5,31.5C 344.971,32.9008 345.638,34.2342 346.5,35.5C 352.754,38.0404 353.421,41.2071 348.5,45C 348.892,46.0105 349.559,46.5105 350.5,46.5C 349.667,46.8333 348.833,47.1667 348,47.5C 345.667,47.1667 343.333,46.8333 341,46.5C 338.807,49.0692 336.64,48.9026 334.5,46C 327.783,45.8476 321.283,44.681 315,42.5C 309.828,43.1199 304.661,43.7865 299.5,44.5C 296.547,44.3494 293.714,43.6827 291,42.5C 288.834,43.7495 286.501,44.4162 284,44.5C 274.506,43.6692 265.172,43.0025 256,42.5C 253.053,42.9089 250.386,43.9089 248,45.5C 247.092,43.5614 245.592,42.5614 243.5,42.5C 243.351,43.552 243.517,44.552 244,45.5C 244.654,44.3044 245.154,44.3044 245.5,45.5C 244.194,46.9122 243.36,48.5789 243,50.5C 242.967,46.9281 241.8,43.9281 239.5,41.5C 239.217,40.7109 238.717,40.0442 238,39.5C 231.117,47.2644 226.951,56.2644 225.5,66.5C 224.732,65.7375 224.232,64.7375 224,63.5C 223.082,65.6324 221.749,66.299 220,65.5C 219.536,66.0944 219.369,66.7611 219.5,67.5C 216.167,58.8333 212.833,50.1667 209.5,41.5C 209.459,39.2547 208.625,38.5881 207,39.5C 203.849,44.8099 201.015,50.1433 198.5,55.5C 199.218,53.8632 199.384,52.1966 199,50.5C 198.243,52.3146 197.41,53.9812 196.5,55.5C 196.548,52.7081 195.215,50.8747 192.5,50C 193.711,49.1072 193.711,48.2739 192.5,47.5C 183.298,49.8459 174.298,52.6792 165.5,56C 167.645,56.7431 167.811,57.5765 166,58.5C 162.589,57.1112 159.755,57.9445 157.5,61C 151.819,61.928 146.986,64.428 143,68.5C 141.951,67.4829 140.784,67.3162 139.5,68C 137.175,71.6899 134.508,75.1899 131.5,78.5C 125.574,80.4359 121.241,84.1026 118.5,89.5C 115.187,91.5108 113.52,94.1775 113.5,97.5C 110.211,99.9776 106.544,101.644 102.5,102.5C 100.002,105.344 97.0024,107.344 93.5,108.5C 93.5,109.5 93.5,110.5 93.5,111.5C 88.4772,112.087 86.8106,110.087 88.5,105.5C 86.3116,97.7635 84.4783,98.0968 83,106.5C 81.5315,107.989 80.0315,109.323 78.5,110.5C 92.2112,79.4318 113.211,54.4318 141.5,35.5C 141.579,36.9305 141.246,38.2638 140.5,39.5C 129.768,45.9022 121.102,54.2355 114.5,64.5C 112.641,66.1924 110.641,67.6924 108.5,69C 110.287,69.1026 111.954,69.7692 113.5,71C 114.79,68.708 116.457,66.708 118.5,65C 122.784,64.7142 125.618,62.5476 127,58.5C 128.816,59.3295 130.649,60.1628 132.5,61C 131.457,62.9756 130.123,63.4756 128.5,62.5C 125.371,65.3694 121.704,67.2027 117.5,68C 116.315,70.057 115.315,72.057 114.5,74C 112.567,74.2511 110.734,74.7511 109,75.5C 109,77.5 109,79.5 109,81.5C 108,82.1667 107,82.8333 106,83.5C 105.044,80.5972 103.211,79.0972 100.5,79C 99.47,83.97 96.97,88.1366 93,91.5C 92.6717,94.2071 93.005,96.8738 94,99.5C 97.7524,102.317 100.252,101.317 101.5,96.5C 100.109,96.8914 99.1095,96.0581 98.5,94C 99.7839,93.3162 100.951,93.4829 102,94.5C 103.205,93.9288 104.372,93.2621 105.5,92.5C 103.995,91.1585 103.328,89.4918 103.5,87.5C 106.044,87.1043 108.211,87.771 110,89.5C 115.584,80.5827 122.75,73.4161 131.5,68C 134.42,68.7634 136.753,68.0967 138.5,66C 143.615,65.2052 147.281,62.5385 149.5,58C 160.093,53.6897 170.76,49.6897 181.5,46C 185.5,45.6667 189.5,45.3333 193.5,45C 192.692,44.6924 192.025,44.1924 191.5,43.5C 193.396,42.5344 195.396,42.2011 197.5,42.5C 197.108,39.2784 197.608,36.2784 199,33.5C 199.848,36.5597 200.848,39.5597 202,42.5C 203.409,39.0498 205.909,37.5498 209.5,38C 212.055,41.0502 213.722,44.5502 214.5,48.5C 216.073,50.8362 217.406,50.8362 218.5,48.5C 215.933,45.905 216.266,43.5717 219.5,41.5C 221.371,42.767 223.204,42.767 225,41.5C 225.17,43.7148 225.837,45.7148 227,47.5C 228.699,46.5939 230.533,46.2606 232.5,46.5C 233.871,41.7818 236.705,38.1151 241,35.5C 243.432,36.2929 245.766,36.6263 248,36.5C 249.117,35.0506 249.784,33.3839 250,31.5C 253.041,31.5326 256.208,32.1993 259.5,33.5C 267.686,31.3307 276.019,29.9973 284.5,29.5C 287.078,30.7322 289.578,31.3989 292,31.5C 294.147,30.8875 296.314,30.2208 298.5,29.5C 300.31,26.7917 302.643,25.9584 305.5,27C 306.206,25.0903 307.206,23.0903 308.5,21C 312.68,21.6051 316.68,21.6051 320.5,21C 313.45,17.9792 306.117,15.3125 298.5,13C 296.654,11.9702 294.987,10.8036 293.5,9.5 Z"/></g>
<g><path style="opacity:0.998" fill="#f5f9f9" d="M 209.5,41.5 C 210.984,47.7538 212.15,54.0872 213,60.5C 215.372,65.4118 217.872,70.2451 220.5,75C 237.988,74.4055 254.488,77.9055 270,85.5C 273.146,87.3423 275.979,89.509 278.5,92C 280.177,95.8477 282.177,99.5144 284.5,103C 302.627,106.938 320.961,108.438 339.5,107.5C 339.5,109.833 339.5,112.167 339.5,114.5C 335.459,123.377 329.793,131.21 322.5,138C 320.275,138.561 318.275,139.561 316.5,141C 309.987,141.172 303.653,141.672 297.5,142.5C 295.236,143.219 292.903,143.552 290.5,143.5C 275.818,144.142 261.151,145.142 246.5,146.5C 239.89,147.722 233.556,147.722 227.5,146.5C 183.107,159.061 154.94,187.728 143,232.5C 141.745,237.954 140.578,243.287 139.5,248.5C 138.67,258.659 138.17,268.992 138,279.5C 137.148,278.429 136.315,277.429 135.5,276.5C 132.696,268.086 129.696,259.753 126.5,251.5C 125.039,244.86 123.705,238.193 122.5,231.5C 119.754,210.802 124.921,192.469 138,176.5C 141.371,173.297 144.538,169.964 147.5,166.5C 155.446,159.184 164.446,153.351 174.5,149C 181.833,146.333 189.167,143.667 196.5,141C 213.814,138.376 230.814,134.376 247.5,129C 218.948,129.577 191.281,134.91 164.5,145C 157.348,148.073 150.682,151.906 144.5,156.5C 141.733,157.051 139.4,158.384 137.5,160.5C 124.315,173.187 113.815,187.854 106,204.5C 105.536,203.906 105.369,203.239 105.5,202.5C 105.5,201.5 105.5,200.5 105.5,199.5C 108.684,172.637 120.684,150.471 141.5,133C 151.31,127.619 161.644,123.619 172.5,121C 171.672,120.085 170.672,119.419 169.5,119C 159.5,118.667 149.5,118.333 139.5,118C 135.972,117.054 132.639,115.887 129.5,114.5C 128.859,113.518 128.193,112.518 127.5,111.5C 137.649,110.239 147.315,107.405 156.5,103C 160.914,100.654 165.248,98.3203 169.5,96C 173.991,91.5812 179.324,88.4145 185.5,86.5C 186.167,88.8333 186.833,91.1667 187.5,93.5C 190.937,105.449 198.271,114.282 209.5,120C 214.455,121.218 219.455,121.551 224.5,121C 208.928,116.262 198.928,106.095 194.5,90.5C 193.571,78.5236 194.905,66.8569 198.5,55.5C 201.015,50.1433 203.849,44.8099 207,39.5C 208.625,38.5881 209.459,39.2547 209.5,41.5 Z M 194.5,90.5 C 198.928,106.095 208.928,116.262 224.5,121C 219.455,121.551 214.455,121.218 209.5,120C 198.271,114.282 190.937,105.449 187.5,93.5C 187.083,90.9208 187.75,88.7542 189.5,87C 190.5,86.3333 191.5,86.3333 192.5,87C 193.085,88.3024 193.751,89.469 194.5,90.5 Z M 270.5,104.5 C 271.141,105.482 271.807,106.482 272.5,107.5C 268.383,109.807 264.05,110.141 259.5,108.5C 256.703,106.205 254.036,103.705 251.5,101C 258.698,98.1848 265.031,99.3515 270.5,104.5 Z M 147.5,166.5 C 146.503,166.53 145.836,166.03 145.5,165C 144.216,162.115 143.883,159.282 144.5,156.5C 150.682,151.906 157.348,148.073 164.5,145C 191.281,134.91 218.948,129.577 247.5,129C 230.814,134.376 213.814,138.376 196.5,141C 189.167,143.667 181.833,146.333 174.5,149C 164.446,153.351 155.446,159.184 147.5,166.5 Z"/></g>
<g><path style="opacity:1" fill="#edfbfc" d="M 239.5,41.5 C 239.123,46.4526 239.789,51.1193 241.5,55.5C 241.5,59.5 241.5,63.5 241.5,67.5C 236.146,67.4312 230.813,67.0978 225.5,66.5C 226.951,56.2644 231.117,47.2644 238,39.5C 238.717,40.0442 239.217,40.7109 239.5,41.5 Z"/></g>
<g><path style="opacity:1" fill="#35b3d2" d="M 344.5,31.5 C 351.064,35.0659 357.064,39.3993 362.5,44.5C 363.506,47.1764 364.506,49.8431 365.5,52.5C 367.912,52.244 369.579,53.244 370.5,55.5C 368.703,56.6951 367.703,58.3618 367.5,60.5C 369.638,60.703 371.305,61.703 372.5,63.5C 372.833,63.1667 373.167,62.8333 373.5,62.5C 371.744,60.8087 371.244,58.8087 372,56.5C 373.579,58.0412 375.413,59.2078 377.5,60C 379.028,62.8808 378.362,65.2141 375.5,67C 370.699,67.5274 365.866,67.3607 361,66.5C 358.522,67.2446 356.022,67.9112 353.5,68.5C 350.268,67.0512 346.935,65.8845 343.5,65C 344.833,64.6667 346.167,64.3333 347.5,64C 342.913,63.2009 338.413,63.3676 334,64.5C 324.31,59.758 314.477,59.4246 304.5,63.5C 303.137,62.8016 301.971,62.8016 301,63.5C 300.383,62.5509 300.549,61.7175 301.5,61C 300.833,60.8333 300.167,60.6667 299.5,60.5C 298.835,61.5133 297.668,62.5133 296,63.5C 292.873,63.0876 289.54,63.0876 286,63.5C 282.737,64.0676 281.237,62.7343 281.5,59.5C 276.593,58.8431 272.26,60.0097 268.5,63C 270.935,64.0034 270.602,64.5034 267.5,64.5C 266.006,64.2908 264.839,63.6241 264,62.5C 263.275,64.158 262.108,64.658 260.5,64C 259.027,63.2904 258.36,62.1238 258.5,60.5C 257.07,60.5792 255.736,60.2458 254.5,59.5C 252.575,59.837 251.075,61.1703 250,63.5C 249.404,60.4604 248.237,57.7937 246.5,55.5C 244.833,55.5 243.167,55.5 241.5,55.5C 239.789,51.1193 239.123,46.4526 239.5,41.5C 241.8,43.9281 242.967,46.9281 243,50.5C 243.36,48.5789 244.194,46.9122 245.5,45.5C 245.154,44.3044 244.654,44.3044 244,45.5C 243.517,44.552 243.351,43.552 243.5,42.5C 245.592,42.5614 247.092,43.5614 248,45.5C 250.386,43.9089 253.053,42.9089 256,42.5C 265.172,43.0025 274.506,43.6692 284,44.5C 286.501,44.4162 288.834,43.7495 291,42.5C 293.714,43.6827 296.547,44.3494 299.5,44.5C 304.661,43.7865 309.828,43.1199 315,42.5C 321.283,44.681 327.783,45.8476 334.5,46C 336.64,48.9026 338.807,49.0692 341,46.5C 343.333,46.8333 345.667,47.1667 348,47.5C 348.833,47.1667 349.667,46.8333 350.5,46.5C 349.559,46.5105 348.892,46.0105 348.5,45C 353.421,41.2071 352.754,38.0404 346.5,35.5C 345.638,34.2342 344.971,32.9008 344.5,31.5 Z"/></g>
<g><path style="opacity:1" fill="#d9f7fb" d="M 209.5,41.5 C 212.833,50.1667 216.167,58.8333 219.5,67.5C 220.089,69.3519 220.756,71.1852 221.5,73C 236.195,73.3087 250.529,75.642 264.5,80C 270.392,83.1074 275.725,86.9408 280.5,91.5C 282.188,98.4161 286.521,102.249 293.5,103C 309.009,106.081 324.676,107.248 340.5,106.5C 340.5,108.167 340.5,109.833 340.5,111.5C 340.737,112.791 340.404,113.791 339.5,114.5C 339.5,112.167 339.5,109.833 339.5,107.5C 320.961,108.438 302.627,106.938 284.5,103C 282.177,99.5144 280.177,95.8477 278.5,92C 275.979,89.509 273.146,87.3423 270,85.5C 254.488,77.9055 237.988,74.4055 220.5,75C 217.872,70.2451 215.372,65.4118 213,60.5C 212.15,54.0872 210.984,47.7538 209.5,41.5 Z"/></g>
<g><path style="opacity:1" fill="#33a6c3" d="M 362.5,44.5 C 375.866,53.8683 386.866,65.5349 395.5,79.5C 398.088,83.3443 398.088,87.1776 395.5,91C 399.536,94.027 399.369,95.1937 395,94.5C 394.932,91.6807 393.766,89.514 391.5,88C 392.524,86.6329 392.024,85.7995 390,85.5C 389.5,85.8333 389,86.1667 388.5,86.5C 389.954,88.6674 389.788,90.6674 388,92.5C 385.476,91.3242 383.976,89.8242 383.5,88C 376.495,86.5 369.495,85 362.5,83.5C 359.24,84.2561 356.24,83.4228 353.5,81C 348.479,80.2756 343.479,79.4423 338.5,78.5C 338.167,77.5 337.5,76.8333 336.5,76.5C 332.109,77.6618 327.776,77.3285 323.5,75.5C 319.693,76.3712 316.026,77.7045 312.5,79.5C 311.051,78.383 309.384,77.7163 307.5,77.5C 303.5,78 299.5,78.5 295.5,79C 291.938,81.9343 288.271,84.601 284.5,87C 285.833,88 285.833,89 284.5,90C 283.256,90.4561 282.423,89.9561 282,88.5C 280.961,89.2438 280.461,90.2438 280.5,91.5C 275.725,86.9408 270.392,83.1074 264.5,80C 250.529,75.642 236.195,73.3087 221.5,73C 220.756,71.1852 220.089,69.3519 219.5,67.5C 219.369,66.7611 219.536,66.0944 220,65.5C 221.749,66.299 223.082,65.6324 224,63.5C 224.232,64.7375 224.732,65.7375 225.5,66.5C 230.813,67.0978 236.146,67.4312 241.5,67.5C 241.5,63.5 241.5,59.5 241.5,55.5C 243.167,55.5 244.833,55.5 246.5,55.5C 248.237,57.7937 249.404,60.4604 250,63.5C 251.075,61.1703 252.575,59.837 254.5,59.5C 255.736,60.2458 257.07,60.5792 258.5,60.5C 258.36,62.1238 259.027,63.2904 260.5,64C 262.108,64.658 263.275,64.158 264,62.5C 264.839,63.6241 266.006,64.2908 267.5,64.5C 270.602,64.5034 270.935,64.0034 268.5,63C 272.26,60.0097 276.593,58.8431 281.5,59.5C 281.237,62.7343 282.737,64.0676 286,63.5C 289.54,63.0876 292.873,63.0876 296,63.5C 297.668,62.5133 298.835,61.5133 299.5,60.5C 300.167,60.6667 300.833,60.8333 301.5,61C 300.549,61.7175 300.383,62.5509 301,63.5C 301.971,62.8016 303.137,62.8016 304.5,63.5C 314.477,59.4246 324.31,59.758 334,64.5C 338.413,63.3676 342.913,63.2009 347.5,64C 346.167,64.3333 344.833,64.6667 343.5,65C 346.935,65.8845 350.268,67.0512 353.5,68.5C 356.022,67.9112 358.522,67.2446 361,66.5C 365.866,67.3607 370.699,67.5274 375.5,67C 378.362,65.2141 379.028,62.8808 377.5,60C 375.413,59.2078 373.579,58.0412 372,56.5C 371.244,58.8087 371.744,60.8087 373.5,62.5C 373.167,62.8333 372.833,63.1667 372.5,63.5C 371.305,61.703 369.638,60.703 367.5,60.5C 367.703,58.3618 368.703,56.6951 370.5,55.5C 369.579,53.244 367.912,52.244 365.5,52.5C 364.506,49.8431 363.506,47.1764 362.5,44.5 Z"/></g>
<g><path style="opacity:1" fill="#299bba" d="M 395.5,79.5 C 398.66,83.1477 401.327,87.1477 403.5,91.5C 406.393,98.566 409.06,105.733 411.5,113C 411.138,114.225 410.638,115.391 410,116.5C 408.29,114.62 406.457,112.954 404.5,111.5C 402.964,112.249 401.631,113.249 400.5,114.5C 399.672,109.657 397.005,108.324 392.5,110.5C 389.686,108.895 386.686,107.895 383.5,107.5C 383.649,108.552 383.483,109.552 383,110.5C 382.185,108.377 381.185,106.377 380,104.5C 379.085,105.328 378.419,106.328 378,107.5C 377.598,106.128 377.098,104.795 376.5,103.5C 369.369,103.776 363.369,101.11 358.5,95.5C 357.571,96.6888 357.238,98.0222 357.5,99.5C 353.604,98.3164 349.771,97.6497 346,97.5C 339.15,99.6681 332.317,101.835 325.5,104C 331.218,104.516 336.885,104.516 342.5,104C 344.657,105.085 344.824,106.251 343,107.5C 342.667,106.833 342.333,106.167 342,105.5C 341.809,107.708 341.309,109.708 340.5,111.5C 340.5,109.833 340.5,108.167 340.5,106.5C 324.676,107.248 309.009,106.081 293.5,103C 286.521,102.249 282.188,98.4161 280.5,91.5C 280.461,90.2438 280.961,89.2438 282,88.5C 282.423,89.9561 283.256,90.4561 284.5,90C 285.833,89 285.833,88 284.5,87C 288.271,84.601 291.938,81.9343 295.5,79C 299.5,78.5 303.5,78 307.5,77.5C 309.384,77.7163 311.051,78.383 312.5,79.5C 316.026,77.7045 319.693,76.3712 323.5,75.5C 327.776,77.3285 332.109,77.6618 336.5,76.5C 337.5,76.8333 338.167,77.5 338.5,78.5C 343.479,79.4423 348.479,80.2756 353.5,81C 356.24,83.4228 359.24,84.2561 362.5,83.5C 369.495,85 376.495,86.5 383.5,88C 383.976,89.8242 385.476,91.3242 388,92.5C 389.788,90.6674 389.954,88.6674 388.5,86.5C 389,86.1667 389.5,85.8333 390,85.5C 392.024,85.7995 392.524,86.6329 391.5,88C 393.766,89.514 394.932,91.6807 395,94.5C 399.369,95.1937 399.536,94.027 395.5,91C 398.088,87.1776 398.088,83.3443 395.5,79.5 Z"/></g>
<g><path style="opacity:1" fill="#3cbbdc" d="M 196.5,55.5 C 196.622,58.2574 195.455,60.2574 193,61.5C 191.334,58.6212 188.834,57.7879 185.5,59C 180.764,61.0983 176.097,63.4316 171.5,66C 166.029,66.9142 160.695,68.0809 155.5,69.5C 155.241,73.0681 153.241,74.4015 149.5,73.5C 149.105,76.5225 150.105,77.5225 152.5,76.5C 155.648,77.1404 155.981,78.1404 153.5,79.5C 152.914,79.2907 152.414,78.9574 152,78.5C 151.144,80.8684 150.31,83.2017 149.5,85.5C 147.94,85.4809 146.44,85.1476 145,84.5C 143.189,85.4235 143.355,86.2569 145.5,87C 142.975,87.8959 140.808,87.3959 139,85.5C 137.552,87.8939 135.386,89.3939 132.5,90C 129.999,92.4051 127.499,94.9051 125,97.5C 124.242,99.7695 124.409,101.936 125.5,104C 123.924,104.44 122.59,105.273 121.5,106.5C 118.31,103.977 116.977,104.977 117.5,109.5C 114.671,109.325 113.004,110.658 112.5,113.5C 111.833,112.833 111.167,112.167 110.5,111.5C 106.604,115.014 104.104,119.347 103,124.5C 100.407,126.226 98.0733,128.226 96,130.5C 95.3333,129.167 94.6667,129.167 94,130.5C 91.9813,136.025 88.8147,140.858 84.5,145C 84.8333,145.333 85.1667,145.667 85.5,146C 83.4308,147.523 81.0974,148.357 78.5,148.5C 78.9383,151.893 78.1049,154.893 76,157.5C 75.6667,156.833 75.3333,156.167 75,155.5C 72.5768,158.206 71.4102,157.539 71.5,153.5C 71.3531,148.252 72.6865,147.585 75.5,151.5C 77.4071,146.632 79.7405,142.132 82.5,138C 80.8333,137.667 79.1667,137.333 77.5,137C 73.868,132.867 73.868,128.867 77.5,125C 76.6422,123.43 75.9755,121.763 75.5,120C 77.8055,117.25 78.8055,114.083 78.5,110.5C 80.0315,109.323 81.5315,107.989 83,106.5C 84.4783,98.0968 86.3116,97.7635 88.5,105.5C 86.8106,110.087 88.4772,112.087 93.5,111.5C 93.5,110.5 93.5,109.5 93.5,108.5C 97.0024,107.344 100.002,105.344 102.5,102.5C 106.544,101.644 110.211,99.9776 113.5,97.5C 113.52,94.1775 115.187,91.5108 118.5,89.5C 121.241,84.1026 125.574,80.4359 131.5,78.5C 134.508,75.1899 137.175,71.6899 139.5,68C 140.784,67.3162 141.951,67.4829 143,68.5C 146.986,64.428 151.819,61.928 157.5,61C 159.755,57.9445 162.589,57.1112 166,58.5C 167.811,57.5765 167.645,56.7431 165.5,56C 174.298,52.6792 183.298,49.8459 192.5,47.5C 193.711,48.2739 193.711,49.1072 192.5,50C 195.215,50.8747 196.548,52.7081 196.5,55.5 Z"/></g>
<g><path style="opacity:1" fill="#cef6f9" d="M 185.5,86.5 C 179.324,88.4145 173.991,91.5812 169.5,96C 165.248,98.3203 160.914,100.654 156.5,103C 147.315,107.405 137.649,110.239 127.5,111.5C 128.193,112.518 128.859,113.518 129.5,114.5C 127.833,113.833 126.167,113.167 124.5,112.5C 124.389,111.883 124.056,111.383 123.5,111C 130.932,109.309 138.266,107.309 145.5,105C 157.437,98.6964 169.437,92.3631 181.5,86C 183.066,85.235 184.399,85.4017 185.5,86.5 Z"/></g>
<g><path style="opacity:0.847" fill="#b6b7b6" d="M 270.5,104.5 C 272.179,104.892 273.846,105.392 275.5,106C 275.167,106.333 274.833,106.667 274.5,107C 275.357,107.689 276.023,108.522 276.5,109.5C 271.198,110.663 265.864,110.829 260.5,110C 259.944,109.617 259.611,109.117 259.5,108.5C 264.05,110.141 268.383,109.807 272.5,107.5C 271.807,106.482 271.141,105.482 270.5,104.5 Z"/></g>
<g><path style="opacity:1" fill="#2489a9" d="M 403.5,91.5 C 406.164,93.4844 407.831,96.1511 408.5,99.5C 408.625,102.686 409.792,105.353 412,107.5C 413.028,111.473 413.861,115.473 414.5,119.5C 415.5,119.5 416.5,119.5 417.5,119.5C 417.834,125.997 417,132.33 415,138.5C 412.119,139.212 409.952,140.878 408.5,143.5C 406.424,141.712 404.257,140.046 402,138.5C 400.484,141.051 399.651,140.718 399.5,137.5C 397.712,137.785 396.045,137.452 394.5,136.5C 396.807,135.193 396.64,133.86 394,132.5C 393.228,132.645 392.561,132.978 392,133.5C 391.751,132.376 391.251,131.376 390.5,130.5C 383.359,127.422 376.025,127.422 368.5,130.5C 367.552,127.285 366.219,126.952 364.5,129.5C 363.672,128.585 362.672,127.919 361.5,127.5C 358.537,129.461 355.871,131.794 353.5,134.5C 351.604,135.466 349.604,135.799 347.5,135.5C 347.108,132.052 347.775,128.886 349.5,126C 349.167,125.5 348.833,125 348.5,124.5C 347.652,126.871 345.985,128.204 343.5,128.5C 341.072,128.128 339.072,127.295 337.5,126C 340.064,128.516 340.064,131.016 337.5,133.5C 339.119,136.642 339.785,139.975 339.5,143.5C 338.167,143.5 336.833,143.5 335.5,143.5C 335.5,142.5 335.5,141.5 335.5,140.5C 334.5,140.5 333.5,140.5 332.5,140.5C 334.305,143.91 333.472,146.576 330,148.5C 329.691,147.234 329.191,146.067 328.5,145C 332.361,143.343 332.361,141.843 328.5,140.5C 327.984,143.251 326.817,145.584 325,147.5C 324.308,146.975 323.808,146.308 323.5,145.5C 327.069,136.882 325.736,135.716 319.5,142C 312.174,142.5 304.841,142.666 297.5,142.5C 303.653,141.672 309.987,141.172 316.5,141C 318.275,139.561 320.275,138.561 322.5,138C 329.793,131.21 335.459,123.377 339.5,114.5C 340.404,113.791 340.737,112.791 340.5,111.5C 341.309,109.708 341.809,107.708 342,105.5C 342.333,106.167 342.667,106.833 343,107.5C 344.824,106.251 344.657,105.085 342.5,104C 336.885,104.516 331.218,104.516 325.5,104C 332.317,101.835 339.15,99.6681 346,97.5C 349.771,97.6497 353.604,98.3164 357.5,99.5C 357.238,98.0222 357.571,96.6888 358.5,95.5C 363.369,101.11 369.369,103.776 376.5,103.5C 377.098,104.795 377.598,106.128 378,107.5C 378.419,106.328 379.085,105.328 380,104.5C 381.185,106.377 382.185,108.377 383,110.5C 383.483,109.552 383.649,108.552 383.5,107.5C 386.686,107.895 389.686,108.895 392.5,110.5C 397.005,108.324 399.672,109.657 400.5,114.5C 401.631,113.249 402.964,112.249 404.5,111.5C 406.457,112.954 408.29,114.62 410,116.5C 410.638,115.391 411.138,114.225 411.5,113C 409.06,105.733 406.393,98.566 403.5,91.5 Z"/></g>
<g><path style="opacity:1" fill="#1e7c9c" d="M 408.5,99.5 C 412.735,105.631 416.235,112.298 419,119.5C 421.819,127.106 424.486,134.773 427,142.5C 428.416,150.375 430.249,158.042 432.5,165.5C 426.873,164.031 421.207,162.531 415.5,161C 398.986,157.795 384.319,161.462 371.5,172C 360.058,181.744 351.724,193.578 346.5,207.5C 344.446,211.875 342.946,216.541 342,221.5C 342.089,217.059 340.255,215.726 336.5,217.5C 336.5,222.167 336.5,226.833 336.5,231.5C 333.955,211.354 338.788,193.021 351,176.5C 355.738,171.926 360.905,167.926 366.5,164.5C 362.374,162.553 358.04,162.053 353.5,163C 346.64,169.931 340.64,177.431 335.5,185.5C 334.697,181.831 335.864,179.164 339,177.5C 342.542,173.698 342.209,170.364 338,167.5C 337.814,163.846 336.147,161.179 333,159.5C 330.625,159.818 329.458,161.151 329.5,163.5C 331.527,163.338 333.527,163.505 335.5,164C 334.359,164.741 334.359,165.575 335.5,166.5C 335.167,167.167 334.833,167.833 334.5,168.5C 331.068,168.997 328.068,170.33 325.5,172.5C 327.891,173.809 327.891,174.809 325.5,175.5C 319.267,177.018 312.934,177.852 306.5,178C 302.885,178.885 299.385,180.052 296,181.5C 292.915,178.881 289.748,178.881 286.5,181.5C 283.491,180.997 280.658,179.997 278,178.5C 275.559,180.626 272.725,181.959 269.5,182.5C 269.833,183.167 270.167,183.833 270.5,184.5C 267.885,191.959 266.052,199.626 265,207.5C 263.938,204.971 263.105,202.304 262.5,199.5C 261.52,202.086 261.187,204.753 261.5,207.5C 257.306,197.541 254.972,187.041 254.5,176C 254.316,174.624 253.649,173.791 252.5,173.5C 262.552,160.107 275.218,150.107 290.5,143.5C 292.903,143.552 295.236,143.219 297.5,142.5C 304.841,142.666 312.174,142.5 319.5,142C 325.736,135.716 327.069,136.882 323.5,145.5C 323.808,146.308 324.308,146.975 325,147.5C 326.817,145.584 327.984,143.251 328.5,140.5C 332.361,141.843 332.361,143.343 328.5,145C 329.191,146.067 329.691,147.234 330,148.5C 333.472,146.576 334.305,143.91 332.5,140.5C 333.5,140.5 334.5,140.5 335.5,140.5C 335.5,141.5 335.5,142.5 335.5,143.5C 336.833,143.5 338.167,143.5 339.5,143.5C 339.785,139.975 339.119,136.642 337.5,133.5C 340.064,131.016 340.064,128.516 337.5,126C 339.072,127.295 341.072,128.128 343.5,128.5C 345.985,128.204 347.652,126.871 348.5,124.5C 348.833,125 349.167,125.5 349.5,126C 347.775,128.886 347.108,132.052 347.5,135.5C 349.604,135.799 351.604,135.466 353.5,134.5C 355.871,131.794 358.537,129.461 361.5,127.5C 362.672,127.919 363.672,128.585 364.5,129.5C 366.219,126.952 367.552,127.285 368.5,130.5C 376.025,127.422 383.359,127.422 390.5,130.5C 391.251,131.376 391.751,132.376 392,133.5C 392.561,132.978 393.228,132.645 394,132.5C 396.64,133.86 396.807,135.193 394.5,136.5C 396.045,137.452 397.712,137.785 399.5,137.5C 399.651,140.718 400.484,141.051 402,138.5C 404.257,140.046 406.424,141.712 408.5,143.5C 409.952,140.878 412.119,139.212 415,138.5C 417,132.33 417.834,125.997 417.5,119.5C 416.5,119.5 415.5,119.5 414.5,119.5C 413.861,115.473 413.028,111.473 412,107.5C 409.792,105.353 408.625,102.686 408.5,99.5 Z"/></g>
<g><path style="opacity:1" fill="#35aecf" d="M 198.5,55.5 C 194.905,66.8569 193.571,78.5236 194.5,90.5C 193.751,89.469 193.085,88.3024 192.5,87C 191.5,86.3333 190.5,86.3333 189.5,87C 187.75,88.7542 187.083,90.9208 187.5,93.5C 186.833,91.1667 186.167,88.8333 185.5,86.5C 184.399,85.4017 183.066,85.235 181.5,86C 169.437,92.3631 157.437,98.6964 145.5,105C 138.266,107.309 130.932,109.309 123.5,111C 124.056,111.383 124.389,111.883 124.5,112.5C 123.427,113.251 123.26,114.251 124,115.5C 125.399,116.227 126.899,116.727 128.5,117C 127.458,118.918 126.292,120.751 125,122.5C 124.257,124.441 124.424,126.274 125.5,128C 122.894,129.938 121.061,132.438 120,135.5C 119.193,131.551 118.693,131.551 118.5,135.5C 113.187,134.115 110.687,136.115 111,141.5C 108.223,142.636 105.723,144.136 103.5,146C 102.475,148.828 103.141,151.328 105.5,153.5C 104.844,155.453 104.511,157.453 104.5,159.5C 102.857,159.48 101.524,160.147 100.5,161.5C 99.8333,161.167 99.1667,160.833 98.5,160.5C 94.2582,164.058 91.2582,168.391 89.5,173.5C 87.6096,173.297 86.1096,173.963 85,175.5C 83.8732,178.377 83.2065,181.377 83,184.5C 79.5879,186.745 77.0879,189.745 75.5,193.5C 74.4451,201.157 73.4451,208.824 72.5,216.5C 72.1667,216.333 71.8333,216.167 71.5,216C 72.3461,209.348 72.3461,202.514 71.5,195.5C 75.2398,191.155 75.0732,187.155 71,183.5C 70.6707,189.362 69.1707,190.196 66.5,186C 65.8333,183 65.1667,180 64.5,177C 65.2905,168.535 65.7905,160.035 66,151.5C 67.7455,145.606 68.9122,139.606 69.5,133.5C 71.143,125.228 74.143,117.561 78.5,110.5C 78.8055,114.083 77.8055,117.25 75.5,120C 75.9755,121.763 76.6422,123.43 77.5,125C 73.868,128.867 73.868,132.867 77.5,137C 79.1667,137.333 80.8333,137.667 82.5,138C 79.7405,142.132 77.4071,146.632 75.5,151.5C 72.6865,147.585 71.3531,148.252 71.5,153.5C 71.4102,157.539 72.5768,158.206 75,155.5C 75.3333,156.167 75.6667,156.833 76,157.5C 78.1049,154.893 78.9383,151.893 78.5,148.5C 81.0974,148.357 83.4308,147.523 85.5,146C 85.1667,145.667 84.8333,145.333 84.5,145C 88.8147,140.858 91.9813,136.025 94,130.5C 94.6667,129.167 95.3333,129.167 96,130.5C 98.0733,128.226 100.407,126.226 103,124.5C 104.104,119.347 106.604,115.014 110.5,111.5C 111.167,112.167 111.833,112.833 112.5,113.5C 113.004,110.658 114.671,109.325 117.5,109.5C 116.977,104.977 118.31,103.977 121.5,106.5C 122.59,105.273 123.924,104.44 125.5,104C 124.409,101.936 124.242,99.7695 125,97.5C 127.499,94.9051 129.999,92.4051 132.5,90C 135.386,89.3939 137.552,87.8939 139,85.5C 140.808,87.3959 142.975,87.8959 145.5,87C 143.355,86.2569 143.189,85.4235 145,84.5C 146.44,85.1476 147.94,85.4809 149.5,85.5C 150.31,83.2017 151.144,80.8684 152,78.5C 152.414,78.9574 152.914,79.2907 153.5,79.5C 155.981,78.1404 155.648,77.1404 152.5,76.5C 150.105,77.5225 149.105,76.5225 149.5,73.5C 153.241,74.4015 155.241,73.0681 155.5,69.5C 160.695,68.0809 166.029,66.9142 171.5,66C 176.097,63.4316 180.764,61.0983 185.5,59C 188.834,57.7879 191.334,58.6212 193,61.5C 195.455,60.2574 196.622,58.2574 196.5,55.5C 197.41,53.9812 198.243,52.3146 199,50.5C 199.384,52.1966 199.218,53.8632 198.5,55.5 Z"/></g>
<g><path style="opacity:0.675" fill="#7e8d94" d="M 227.5,146.5 C 233.556,147.722 239.89,147.722 246.5,146.5C 243.423,147.856 240.09,148.689 236.5,149C 234.283,152.458 231.617,155.458 228.5,158C 230.107,157.981 231.774,157.815 233.5,157.5C 228.37,161.235 222.704,164.235 216.5,166.5C 215.479,165.998 215.312,165.332 216,164.5C 218.703,161.462 221.703,158.795 225,156.5C 225.749,155.365 225.583,154.365 224.5,153.5C 223.583,154.127 222.583,154.461 221.5,154.5C 224.363,152.503 227.03,150.169 229.5,147.5C 229.043,146.702 228.376,146.369 227.5,146.5 Z"/></g>
<g><path style="opacity:0.998" fill="#f4f6f6" d="M 182.5,257.5 C 180.861,260.851 179.861,264.518 179.5,268.5C 178.695,270.472 177.361,271.972 175.5,273C 176.448,273.483 177.448,273.649 178.5,273.5C 179.464,283.809 179.131,288.809 177.5,288.5C 174.88,289.753 172.213,291.086 169.5,292.5C 167.969,295.365 165.803,297.698 163,299.5C 162.329,298.748 161.496,298.414 160.5,298.5C 157.739,293.513 155.573,288.18 154,282.5C 152.957,279.243 152.457,275.91 152.5,272.5C 151.64,262.861 151.307,253.194 151.5,243.5C 155.545,213.294 169.545,188.794 193.5,170C 200.5,165.667 207.5,161.333 214.5,157C 216.854,156.153 219.188,155.32 221.5,154.5C 222.583,154.461 223.583,154.127 224.5,153.5C 225.583,154.365 225.749,155.365 225,156.5C 221.703,158.795 218.703,161.462 216,164.5C 215.312,165.332 215.479,165.998 216.5,166.5C 222.704,164.235 228.37,161.235 233.5,157.5C 240.573,153.648 248.239,151.481 256.5,151C 260.033,150.097 263.367,150.43 266.5,152C 265.743,153.512 264.743,154.846 263.5,156C 255.588,159.409 248.255,163.742 241.5,169C 229.259,180.738 217.592,192.905 206.5,205.5C 201.713,212.123 197.547,219.123 194,226.5C 190.039,236.893 186.206,247.227 182.5,257.5 Z"/></g>
<g><path style="opacity:0.998" fill="#f3f7f7" d="M 432.5,165.5 C 439.774,168.441 445.107,173.441 448.5,180.5C 448.657,181.873 448.49,183.207 448,184.5C 446.553,182.597 444.886,180.93 443,179.5C 442.107,180.081 441.107,180.415 440,180.5C 436.737,178.803 433.237,177.803 429.5,177.5C 416.068,175.443 403.735,178.11 392.5,185.5C 391.476,186.852 390.476,188.185 389.5,189.5C 372.077,203.245 364.91,221.245 368,243.5C 370.44,224.612 378.607,208.945 392.5,196.5C 396.934,195.117 401.267,193.451 405.5,191.5C 412.023,189.565 418.689,189.065 425.5,190C 415.059,193.76 406.226,199.927 399,208.5C 390.603,217.962 385.436,228.962 383.5,241.5C 381.803,252.453 379.136,263.12 375.5,273.5C 374.972,274.721 374.305,275.887 373.5,277C 371.251,279.412 368.584,281.245 365.5,282.5C 362.031,282.547 358.698,283.213 355.5,284.5C 350.906,285.815 346.239,286.815 341.5,287.5C 341.5,286.5 341.5,285.5 341.5,284.5C 342.966,280.265 344.133,275.932 345,271.5C 345.449,257.831 345.282,244.164 344.5,230.5C 344.346,222.737 345.013,215.071 346.5,207.5C 351.724,193.578 360.058,181.744 371.5,172C 384.319,161.462 398.986,157.795 415.5,161C 421.207,162.531 426.873,164.031 432.5,165.5 Z M 389.5,189.5 C 391.065,191.509 392.065,193.843 392.5,196.5C 378.607,208.945 370.44,224.612 368,243.5C 364.91,221.245 372.077,203.245 389.5,189.5 Z"/></g>
<g><path style="opacity:1" fill="#157292" d="M 335.5,185.5 C 331.462,194.281 328.462,203.281 326.5,212.5C 326.279,209.903 325.779,209.903 325,212.5C 323.915,210.627 322.582,208.96 321,207.5C 320.667,208.5 320.333,209.5 320,210.5C 318.581,209.54 317.081,208.707 315.5,208C 318.063,207.237 318.063,206.737 315.5,206.5C 312.062,206.89 308.395,207.223 304.5,207.5C 304.459,203.149 302.459,201.816 298.5,203.5C 296.799,204.802 295.632,206.469 295,208.5C 291.961,207.034 289.128,207.367 286.5,209.5C 285.808,208.975 285.308,208.308 285,207.5C 283.938,210.029 283.105,212.696 282.5,215.5C 281.586,213.336 280.419,211.336 279,209.5C 277.615,210.551 276.615,211.884 276,213.5C 275.744,216.557 275.244,219.557 274.5,222.5C 275.089,224.481 274.755,226.481 273.5,228.5C 268.239,222.323 264.239,215.323 261.5,207.5C 261.187,204.753 261.52,202.086 262.5,199.5C 263.105,202.304 263.938,204.971 265,207.5C 266.052,199.626 267.885,191.959 270.5,184.5C 270.167,183.833 269.833,183.167 269.5,182.5C 272.725,181.959 275.559,180.626 278,178.5C 280.658,179.997 283.491,180.997 286.5,181.5C 289.748,178.881 292.915,178.881 296,181.5C 299.385,180.052 302.885,178.885 306.5,178C 312.934,177.852 319.267,177.018 325.5,175.5C 327.891,174.809 327.891,173.809 325.5,172.5C 328.068,170.33 331.068,168.997 334.5,168.5C 334.833,167.833 335.167,167.167 335.5,166.5C 334.359,165.575 334.359,164.741 335.5,164C 333.527,163.505 331.527,163.338 329.5,163.5C 329.458,161.151 330.625,159.818 333,159.5C 336.147,161.179 337.814,163.846 338,167.5C 342.209,170.364 342.542,173.698 339,177.5C 335.864,179.164 334.697,181.831 335.5,185.5 Z"/></g>
<g><path style="opacity:0.796" fill="#bbbdc0" d="M 429.5,177.5 C 433.237,177.803 436.737,178.803 440,180.5C 441.107,180.415 442.107,180.081 443,179.5C 444.886,180.93 446.553,182.597 448,184.5C 448.49,183.207 448.657,181.873 448.5,180.5C 451.236,182.858 452.07,185.858 451,189.5C 448.475,186.981 445.642,184.814 442.5,183C 439.02,181.897 435.687,180.731 432.5,179.5C 431.5,178.833 430.5,178.167 429.5,177.5 Z"/></g>
<g><path style="opacity:1" fill="#315464" d="M 429.5,177.5 C 430.5,178.167 431.5,178.833 432.5,179.5C 431.252,180.334 430.585,181.667 430.5,183.5C 430.031,189.339 429.365,195.006 428.5,200.5C 428.666,195.156 428.499,189.823 428,184.5C 427.879,182.273 427.046,180.44 425.5,179C 420.311,178.015 415.311,178.515 410.5,180.5C 408.052,184.234 406.386,187.901 405.5,191.5C 401.267,193.451 396.934,195.117 392.5,196.5C 392.065,193.843 391.065,191.509 389.5,189.5C 390.476,188.185 391.476,186.852 392.5,185.5C 403.735,178.11 416.068,175.443 429.5,177.5 Z"/></g>
<g><path style="opacity:1" fill="#2f9fc0" d="M 124.5,112.5 C 126.167,113.167 127.833,113.833 129.5,114.5C 132.639,115.887 135.972,117.054 139.5,118C 149.5,118.333 159.5,118.667 169.5,119C 170.672,119.419 171.672,120.085 172.5,121C 161.644,123.619 151.31,127.619 141.5,133C 120.684,150.471 108.684,172.637 105.5,199.5C 105.566,195.441 105.733,191.441 106,187.5C 105.107,188.711 104.274,188.711 103.5,187.5C 102.332,184.161 101.166,180.828 100,177.5C 100.058,183.653 97.5579,185.32 92.5,182.5C 92.2635,183.247 91.9302,184.08 91.5,185C 89.8988,185.273 88.3988,185.773 87,186.5C 85.3953,189.648 84.3953,192.981 84,196.5C 82.907,198.349 81.5737,200.016 80,201.5C 79.6667,200.833 79.3333,200.167 79,199.5C 76.6804,207.085 74.6804,214.752 73,222.5C 72.3333,223.833 71.6667,223.833 71,222.5C 70.6667,223.167 70.3333,223.833 70,224.5C 68.583,222.602 67.083,220.936 65.5,219.5C 61.751,196.692 61.5843,173.692 65,150.5C 66.0599,144.586 67.5599,138.92 69.5,133.5C 68.9122,139.606 67.7455,145.606 66,151.5C 65.7905,160.035 65.2905,168.535 64.5,177C 65.1667,180 65.8333,183 66.5,186C 69.1707,190.196 70.6707,189.362 71,183.5C 75.0732,187.155 75.2398,191.155 71.5,195.5C 72.3461,202.514 72.3461,209.348 71.5,216C 71.8333,216.167 72.1667,216.333 72.5,216.5C 73.4451,208.824 74.4451,201.157 75.5,193.5C 77.0879,189.745 79.5879,186.745 83,184.5C 83.2065,181.377 83.8732,178.377 85,175.5C 86.1096,173.963 87.6096,173.297 89.5,173.5C 91.2582,168.391 94.2582,164.058 98.5,160.5C 99.1667,160.833 99.8333,161.167 100.5,161.5C 101.524,160.147 102.857,159.48 104.5,159.5C 104.511,157.453 104.844,155.453 105.5,153.5C 103.141,151.328 102.475,148.828 103.5,146C 105.723,144.136 108.223,142.636 111,141.5C 110.687,136.115 113.187,134.115 118.5,135.5C 118.693,131.551 119.193,131.551 120,135.5C 121.061,132.438 122.894,129.938 125.5,128C 124.424,126.274 124.257,124.441 125,122.5C 126.292,120.751 127.458,118.918 128.5,117C 126.899,116.727 125.399,116.227 124,115.5C 123.26,114.251 123.427,113.251 124.5,112.5 Z"/></g>
<g><path style="opacity:0.998" fill="#f2f4f5" d="M 257.5,265.5 C 257.986,267.807 257.986,269.973 257.5,272C 259.886,272.284 260.552,273.284 259.5,275C 260.167,276.333 260.833,277.667 261.5,279C 259.679,281.456 259.012,284.289 259.5,287.5C 261.103,287.312 262.437,287.812 263.5,289C 256.529,289.234 250.695,292.067 246,297.5C 245.333,294.833 244.667,294.833 244,297.5C 241.803,295.844 239.303,294.678 236.5,294C 237.151,292.692 236.485,291.859 234.5,291.5C 219.126,257.322 218.959,222.989 234,188.5C 235.579,184.64 238.079,181.64 241.5,179.5C 242.5,179.833 243.167,180.5 243.5,181.5C 240.342,200.855 243.842,218.855 254,235.5C 254.667,237.167 254.667,238.833 254,240.5C 250.814,244.298 249.814,248.632 251,253.5C 253.446,257.394 255.612,261.394 257.5,265.5 Z"/></g>
<g><path style="opacity:1" fill="#edfafb" d="M 336.5,231.5 C 336.828,236.875 336.495,242.208 335.5,247.5C 334.893,247.376 334.56,247.043 334.5,246.5C 332.621,241.739 330.454,237.073 328,232.5C 326.863,225.88 326.363,219.214 326.5,212.5C 328.462,203.281 331.462,194.281 335.5,185.5C 340.64,177.431 346.64,169.931 353.5,163C 358.04,162.053 362.374,162.553 366.5,164.5C 360.905,167.926 355.738,171.926 351,176.5C 338.788,193.021 333.955,211.354 336.5,231.5 Z"/></g>
<g><path style="opacity:1" fill="#227e9c" d="M 144.5,156.5 C 143.883,159.282 144.216,162.115 145.5,165C 145.836,166.03 146.503,166.53 147.5,166.5C 144.538,169.964 141.371,173.297 138,176.5C 124.921,192.469 119.754,210.802 122.5,231.5C 121.883,231.389 121.383,231.056 121,230.5C 121.629,223.932 119.796,218.266 115.5,213.5C 116.292,211.805 115.958,210.138 114.5,208.5C 113.6,216.492 112.767,224.492 112,232.5C 111.667,232.833 111.333,233.167 111,233.5C 107.634,232.302 104.468,230.969 101.5,229.5C 109.147,229.687 112.314,226.02 111,218.5C 107.95,214.87 104.117,213.703 99.5,215C 96.6165,218.469 95.9498,222.302 97.5,226.5C 96.5041,226.586 95.6708,226.252 95,225.5C 94.5065,223.866 94.3398,222.199 94.5,220.5C 96.3492,215.152 100.016,211.652 105.5,210C 103.026,207.521 103.026,205.021 105.5,202.5C 105.369,203.239 105.536,203.906 106,204.5C 113.815,187.854 124.315,173.187 137.5,160.5C 139.4,158.384 141.733,157.051 144.5,156.5 Z"/></g>
<g><path style="opacity:1" fill="#2090b5" d="M 105.5,199.5 C 105.5,200.5 105.5,201.5 105.5,202.5C 103.026,205.021 103.026,207.521 105.5,210C 100.016,211.652 96.3492,215.152 94.5,220.5C 88.9087,222.382 86.9087,226.049 88.5,231.5C 88.0495,238.296 86.8829,244.963 85,251.5C 83.108,252.13 81.4413,253.13 80,254.5C 78.4152,253.624 77.4152,252.291 77,250.5C 76.6667,250.833 76.3333,251.167 76,251.5C 75.5762,248.975 74.4095,246.975 72.5,245.5C 68.6859,237.348 66.3526,228.681 65.5,219.5C 67.083,220.936 68.583,222.602 70,224.5C 70.3333,223.833 70.6667,223.167 71,222.5C 71.6667,223.833 72.3333,223.833 73,222.5C 74.6804,214.752 76.6804,207.085 79,199.5C 79.3333,200.167 79.6667,200.833 80,201.5C 81.5737,200.016 82.907,198.349 84,196.5C 84.3953,192.981 85.3953,189.648 87,186.5C 88.3988,185.773 89.8988,185.273 91.5,185C 91.9302,184.08 92.2635,183.247 92.5,182.5C 97.5579,185.32 100.058,183.653 100,177.5C 101.166,180.828 102.332,184.161 103.5,187.5C 104.274,188.711 105.107,188.711 106,187.5C 105.733,191.441 105.566,195.441 105.5,199.5 Z"/></g>
<g><path style="opacity:0.994" fill="#edf5f7" d="M 252.5,173.5 C 253.649,173.791 254.316,174.624 254.5,176C 254.972,187.041 257.306,197.541 261.5,207.5C 264.239,215.323 268.239,222.323 273.5,228.5C 279.427,236.764 286.093,244.43 293.5,251.5C 294.043,251.56 294.376,251.893 294.5,252.5C 293.635,253.583 292.635,253.749 291.5,253C 286.377,249.956 281.044,247.289 275.5,245C 270.655,241.644 265.988,238.144 261.5,234.5C 248.575,218.59 244.742,200.59 250,180.5C 250.156,177.809 250.989,175.476 252.5,173.5 Z"/></g>
<g><path style="opacity:1" fill="#195b78" d="M 428.5,200.5 C 428.056,211.581 426.056,222.248 422.5,232.5C 422.565,232.062 422.399,231.728 422,231.5C 420.041,235.669 418.541,240.002 417.5,244.5C 414.496,248.19 411.829,252.19 409.5,256.5C 407.929,254.118 407.096,251.451 407,248.5C 406.226,252.147 405.559,255.814 405,259.5C 404.392,261.066 403.558,262.4 402.5,263.5C 403.915,251.857 404.915,240.191 405.5,228.5C 404.132,227.406 402.965,227.74 402,229.5C 399.807,233.23 397.64,236.897 395.5,240.5C 393.694,237.662 392.694,237.995 392.5,241.5C 388.856,241.292 386.689,239.292 386,235.5C 385.28,237.112 385.446,238.612 386.5,240C 385.473,240.513 384.473,241.013 383.5,241.5C 385.436,228.962 390.603,217.962 399,208.5C 406.226,199.927 415.059,193.76 425.5,190C 418.689,189.065 412.023,189.565 405.5,191.5C 406.386,187.901 408.052,184.234 410.5,180.5C 415.311,178.515 420.311,178.015 425.5,179C 427.046,180.44 427.879,182.273 428,184.5C 428.499,189.823 428.666,195.156 428.5,200.5 Z"/></g>
<g><path style="opacity:1" fill="#136485" d="M 326.5,212.5 C 326.363,219.214 326.863,225.88 328,232.5C 330.454,237.073 332.621,241.739 334.5,246.5C 332.234,246.859 330.401,246.192 329,244.5C 328.667,245.167 328.333,245.833 328,246.5C 325.752,241.258 323.752,235.925 322,230.5C 321.193,234.449 320.693,234.449 320.5,230.5C 315.837,229.376 313.003,231.043 312,235.5C 310.127,234.911 308.46,235.578 307,237.5C 306.667,237.167 306.333,236.833 306,236.5C 305.875,239.664 304.542,240.664 302,239.5C 299.805,240.8 297.472,241.8 295,242.5C 294.549,240.071 293.715,239.904 292.5,242C 294.48,245.047 294.814,248.213 293.5,251.5C 286.093,244.43 279.427,236.764 273.5,228.5C 274.755,226.481 275.089,224.481 274.5,222.5C 275.244,219.557 275.744,216.557 276,213.5C 276.615,211.884 277.615,210.551 279,209.5C 280.419,211.336 281.586,213.336 282.5,215.5C 283.105,212.696 283.938,210.029 285,207.5C 285.308,208.308 285.808,208.975 286.5,209.5C 289.128,207.367 291.961,207.034 295,208.5C 295.632,206.469 296.799,204.802 298.5,203.5C 302.459,201.816 304.459,203.149 304.5,207.5C 308.395,207.223 312.062,206.89 315.5,206.5C 318.063,206.737 318.063,207.237 315.5,208C 317.081,208.707 318.581,209.54 320,210.5C 320.333,209.5 320.667,208.5 321,207.5C 322.582,208.96 323.915,210.627 325,212.5C 325.779,209.903 326.279,209.903 326.5,212.5 Z"/></g>
<g><path style="opacity:1" fill="#e2f8fb" d="M 101.5,229.5 C 100.167,228.5 98.8333,227.5 97.5,226.5C 95.9498,222.302 96.6165,218.469 99.5,215C 104.117,213.703 107.95,214.87 111,218.5C 112.314,226.02 109.147,229.687 101.5,229.5 Z"/></g>
<g><path style="opacity:1" fill="#187ba1" d="M 122.5,231.5 C 123.705,238.193 125.039,244.86 126.5,251.5C 125.732,250.737 125.232,249.737 125,248.5C 123.377,251.327 122.21,254.327 121.5,257.5C 119.878,259.439 118.044,259.772 116,258.5C 112.41,261.479 110.743,265.479 111,270.5C 108.272,273.928 107.105,277.928 107.5,282.5C 106.167,282.5 104.833,282.5 103.5,282.5C 103.5,283.833 103.5,285.167 103.5,286.5C 104.5,286.5 105.5,286.5 106.5,286.5C 106.455,294.715 103.955,295.381 99,288.5C 96.5941,291.152 94.7608,290.652 93.5,287C 95.158,286.275 95.658,285.108 95,283.5C 91.4893,279.127 87.9893,274.794 84.5,270.5C 81.5087,264.151 78.5087,258.485 75.5,253.5C 73.7329,251.208 72.7329,248.542 72.5,245.5C 74.4095,246.975 75.5762,248.975 76,251.5C 76.3333,251.167 76.6667,250.833 77,250.5C 77.4152,252.291 78.4152,253.624 80,254.5C 81.4413,253.13 83.108,252.13 85,251.5C 86.8829,244.963 88.0495,238.296 88.5,231.5C 86.9087,226.049 88.9087,222.382 94.5,220.5C 94.3398,222.199 94.5065,223.866 95,225.5C 95.6708,226.252 96.5041,226.586 97.5,226.5C 98.8333,227.5 100.167,228.5 101.5,229.5C 104.468,230.969 107.634,232.302 111,233.5C 111.333,233.167 111.667,232.833 112,232.5C 112.767,224.492 113.6,216.492 114.5,208.5C 115.958,210.138 116.292,211.805 115.5,213.5C 119.796,218.266 121.629,223.932 121,230.5C 121.383,231.056 121.883,231.389 122.5,231.5 Z"/></g>
<g><path style="opacity:0.255" fill="#88949a" d="M 151.5,243.5 C 151.307,253.194 151.64,262.861 152.5,272.5C 151.71,271.391 151.21,270.058 151,268.5C 150.177,259.99 150.343,251.656 151.5,243.5 Z"/></g>
<g><path style="opacity:1" fill="#105675" d="M 346.5,207.5 C 345.013,215.071 344.346,222.737 344.5,230.5C 345.282,244.164 345.449,257.831 345,271.5C 344.133,275.932 342.966,280.265 341.5,284.5C 340.527,286.948 340.194,289.615 340.5,292.5C 335.507,292.084 330.507,291.751 325.5,291.5C 315.682,289.283 306.349,285.783 297.5,281C 283.237,270.392 270.571,258.225 259.5,244.5C 258.614,245.325 258.281,246.325 258.5,247.5C 257.876,247.083 257.543,246.416 257.5,245.5C 258.727,242.269 260.394,239.269 262.5,236.5C 262.137,235.817 261.804,235.15 261.5,234.5C 265.988,238.144 270.655,241.644 275.5,245C 281.044,247.289 286.377,249.956 291.5,253C 292.635,253.749 293.635,253.583 294.5,252.5C 294.376,251.893 294.043,251.56 293.5,251.5C 294.814,248.213 294.48,245.047 292.5,242C 293.715,239.904 294.549,240.071 295,242.5C 297.472,241.8 299.805,240.8 302,239.5C 304.542,240.664 305.875,239.664 306,236.5C 306.333,236.833 306.667,237.167 307,237.5C 308.46,235.578 310.127,234.911 312,235.5C 313.003,231.043 315.837,229.376 320.5,230.5C 320.693,234.449 321.193,234.449 322,230.5C 323.752,235.925 325.752,241.258 328,246.5C 328.333,245.833 328.667,245.167 329,244.5C 330.401,246.192 332.234,246.859 334.5,246.5C 334.56,247.043 334.893,247.376 335.5,247.5C 336.495,242.208 336.828,236.875 336.5,231.5C 336.5,226.833 336.5,222.167 336.5,217.5C 340.255,215.726 342.089,217.059 342,221.5C 342.946,216.541 344.446,211.875 346.5,207.5 Z"/></g>
<g><path style="opacity:1" fill="#314450" d="M 395.5,240.5 C 394.123,253.915 388.956,265.581 380,275.5C 379.617,274.944 379.117,274.611 378.5,274.5C 378.649,273.448 378.483,272.448 378,271.5C 377.292,272.381 376.458,273.047 375.5,273.5C 379.136,263.12 381.803,252.453 383.5,241.5C 384.473,241.013 385.473,240.513 386.5,240C 385.446,238.612 385.28,237.112 386,235.5C 386.689,239.292 388.856,241.292 392.5,241.5C 392.694,237.995 393.694,237.662 395.5,240.5 Z"/></g>
<g><path style="opacity:1" fill="#234660" d="M 422.5,232.5 C 419.258,244.327 415.425,255.994 411,267.5C 407.55,274.09 403.384,280.09 398.5,285.5C 399.716,278.872 400.716,272.205 401.5,265.5C 401.833,264.833 402.167,264.167 402.5,263.5C 403.558,262.4 404.392,261.066 405,259.5C 405.559,255.814 406.226,252.147 407,248.5C 407.096,251.451 407.929,254.118 409.5,256.5C 411.829,252.19 414.496,248.19 417.5,244.5C 418.541,240.002 420.041,235.669 422,231.5C 422.399,231.728 422.565,232.062 422.5,232.5 Z"/></g>
<g><path style="opacity:0.995" fill="#ecf1f2" d="M 402.5,263.5 C 402.167,264.167 401.833,264.833 401.5,265.5C 399.989,267.476 399.156,269.809 399,272.5C 397.984,271.366 397.317,271.699 397,273.5C 396,270.833 395,270.833 394,273.5C 393.259,272.359 392.425,272.359 391.5,273.5C 388.241,278.352 385.241,283.352 382.5,288.5C 376.958,292.433 371.291,296.1 365.5,299.5C 331.698,313.756 302.364,307.423 277.5,280.5C 273.475,275.642 269.642,270.642 266,265.5C 263.211,259.593 260.711,253.593 258.5,247.5C 258.281,246.325 258.614,245.325 259.5,244.5C 270.571,258.225 283.237,270.392 297.5,281C 306.349,285.783 315.682,289.283 325.5,291.5C 334.019,294.407 342.686,295.074 351.5,293.5C 353.514,293.608 355.18,292.942 356.5,291.5C 366.153,288.691 373.486,283.025 378.5,274.5C 379.117,274.611 379.617,274.944 380,275.5C 388.956,265.581 394.123,253.915 395.5,240.5C 397.64,236.897 399.807,233.23 402,229.5C 402.965,227.74 404.132,227.406 405.5,228.5C 404.915,240.191 403.915,251.857 402.5,263.5 Z M 378.5,274.5 C 373.486,283.025 366.153,288.691 356.5,291.5C 357.072,289.745 357.906,288.078 359,286.5C 361.314,285.267 363.481,283.933 365.5,282.5C 368.584,281.245 371.251,279.412 373.5,277C 374.305,275.887 374.972,274.721 375.5,273.5C 376.458,273.047 377.292,272.381 378,271.5C 378.483,272.448 378.649,273.448 378.5,274.5 Z"/></g>
<g><path style="opacity:1" fill="#435c65" d="M 376.5,301.5 C 377.714,299.192 377.714,296.859 376.5,294.5C 373.455,297.516 369.788,299.182 365.5,299.5C 371.291,296.1 376.958,292.433 382.5,288.5C 383.82,287.058 385.486,286.392 387.5,286.5C 387.66,288.199 387.494,289.866 387,291.5C 384.5,294.667 382,297.833 379.5,301C 378.552,301.483 377.552,301.649 376.5,301.5 Z"/></g>
<g><path style="opacity:1" fill="#156689" d="M 126.5,251.5 C 129.696,259.753 132.696,268.086 135.5,276.5C 134.219,281.254 131.552,285.087 127.5,288C 128.059,288.725 128.392,289.558 128.5,290.5C 127.758,292.98 126.758,295.313 125.5,297.5C 125.608,298.442 125.941,299.275 126.5,300C 124.968,300.7 123.968,301.866 123.5,303.5C 125.166,308.504 124.499,313.171 121.5,317.5C 119.45,316.923 118.45,315.59 118.5,313.5C 113.337,312.677 110.004,309.677 108.5,304.5C 105.658,303.996 104.325,302.329 104.5,299.5C 103.167,299.5 101.833,299.5 100.5,299.5C 89.6158,285.6 81.2825,270.266 75.5,253.5C 78.5087,258.485 81.5087,264.151 84.5,270.5C 87.9893,274.794 91.4893,279.127 95,283.5C 95.658,285.108 95.158,286.275 93.5,287C 94.7608,290.652 96.5941,291.152 99,288.5C 103.955,295.381 106.455,294.715 106.5,286.5C 105.5,286.5 104.5,286.5 103.5,286.5C 103.5,285.167 103.5,283.833 103.5,282.5C 104.833,282.5 106.167,282.5 107.5,282.5C 107.105,277.928 108.272,273.928 111,270.5C 110.743,265.479 112.41,261.479 116,258.5C 118.044,259.772 119.878,259.439 121.5,257.5C 122.21,254.327 123.377,251.327 125,248.5C 125.232,249.737 125.732,250.737 126.5,251.5 Z"/></g>
<g><path style="opacity:1" fill="#5e7d8d" d="M 341.5,284.5 C 341.5,285.5 341.5,286.5 341.5,287.5C 346.239,286.815 350.906,285.815 355.5,284.5C 351.198,287.322 346.865,290.155 342.5,293C 345.482,293.498 348.482,293.665 351.5,293.5C 342.686,295.074 334.019,294.407 325.5,291.5C 330.507,291.751 335.507,292.084 340.5,292.5C 340.194,289.615 340.527,286.948 341.5,284.5 Z"/></g>
<g><path style="opacity:1" fill="#2f4859" d="M 365.5,282.5 C 363.481,283.933 361.314,285.267 359,286.5C 357.906,288.078 357.072,289.745 356.5,291.5C 355.18,292.942 353.514,293.608 351.5,293.5C 348.482,293.665 345.482,293.498 342.5,293C 346.865,290.155 351.198,287.322 355.5,284.5C 358.698,283.213 362.031,282.547 365.5,282.5 Z"/></g>
<g><path style="opacity:1" fill="#e8ecec" d="M 257.5,265.5 C 261.465,272.742 265.965,279.742 271,286.5C 277.096,293.102 283.596,299.102 290.5,304.5C 290.675,306.844 291.842,308.511 294,309.5C 294.333,309.167 294.667,308.833 295,308.5C 295.043,311.217 296.043,311.884 298,310.5C 303.732,312.84 309.399,315.174 315,317.5C 324.423,316.68 333.923,316.18 343.5,316C 344.056,315.617 344.389,315.117 344.5,314.5C 350.88,313.041 357.213,311.374 363.5,309.5C 365.467,309.261 367.301,309.594 369,310.5C 369.919,307.356 371.752,306.356 374.5,307.5C 356.972,322.405 336.972,327.405 314.5,322.5C 312.833,322.833 311.167,323.167 309.5,323.5C 313.621,324.243 313.288,325.41 308.5,327C 307.878,336.137 307.878,344.804 308.5,353C 309.744,353.456 310.577,352.956 311,351.5C 312.012,354.426 313.845,355.26 316.5,354C 311.691,355.442 306.691,355.942 301.5,355.5C 290.534,353.23 280.534,348.73 271.5,342C 262.581,333.417 254.081,324.584 246,315.5C 241.867,307.569 238.033,299.569 234.5,291.5C 236.485,291.859 237.151,292.692 236.5,294C 239.303,294.678 241.803,295.844 244,297.5C 244.667,294.833 245.333,294.833 246,297.5C 250.695,292.067 256.529,289.234 263.5,289C 262.437,287.812 261.103,287.312 259.5,287.5C 259.012,284.289 259.679,281.456 261.5,279C 260.833,277.667 260.167,276.333 259.5,275C 260.552,273.284 259.886,272.284 257.5,272C 257.986,269.973 257.986,267.807 257.5,265.5 Z"/></g>
<g><path style="opacity:0.957" fill="#abb0b1" d="M 290.5,304.5 C 307.128,314.624 325.128,317.957 344.5,314.5C 344.389,315.117 344.056,315.617 343.5,316C 333.923,316.18 324.423,316.68 315,317.5C 309.399,315.174 303.732,312.84 298,310.5C 296.043,311.884 295.043,311.217 295,308.5C 294.667,308.833 294.333,309.167 294,309.5C 291.842,308.511 290.675,306.844 290.5,304.5 Z"/></g>
<g><path style="opacity:1" fill="#d9dcdd" d="M 182.5,257.5 C 179.221,282.343 180.221,307.009 185.5,331.5C 185.167,332.5 184.833,333.5 184.5,334.5C 181.906,333.408 179.739,331.741 178,329.5C 170.59,320.009 164.757,309.676 160.5,298.5C 161.496,298.414 162.329,298.748 163,299.5C 165.803,297.698 167.969,295.365 169.5,292.5C 172.213,291.086 174.88,289.753 177.5,288.5C 179.131,288.809 179.464,283.809 178.5,273.5C 177.448,273.649 176.448,273.483 175.5,273C 177.361,271.972 178.695,270.472 179.5,268.5C 179.861,264.518 180.861,260.851 182.5,257.5 Z"/></g>
<g><path style="opacity:0.997" fill="#dfe4e5" d="M 215.5,264.5 C 217.742,279.381 223.409,292.881 232.5,305C 229.375,309.363 227.208,314.196 226,319.5C 224.883,335.812 224.217,352.145 224,368.5C 223.275,369.059 222.442,369.392 221.5,369.5C 214.167,367.333 206.833,365.167 199.5,363C 198.544,359.606 198.211,356.106 198.5,352.5C 198.665,349.15 198.498,345.817 198,342.5C 197.722,341.584 197.222,340.918 196.5,340.5C 190.211,312.709 189.044,284.709 193,256.5C 197.562,239.051 204.562,222.718 214,207.5C 215.351,205.981 216.851,204.648 218.5,203.5C 218.833,204.333 219.167,205.167 219.5,206C 217.746,214.85 215.912,223.684 214,232.5C 213.14,243.243 213.64,253.91 215.5,264.5 Z"/></g>
<g><path style="opacity:0.998" fill="#f8fbfa" d="M 215.5,264.5 C 215.761,268.492 215.094,272.326 213.5,276C 216.177,279.307 216.677,282.807 215,286.5C 213.989,287.337 212.822,287.67 211.5,287.5C 211.968,284.058 210.802,281.391 208,279.5C 206.374,282.998 205.207,286.665 204.5,290.5C 203.749,289.624 203.249,288.624 203,287.5C 200.861,301.084 199.528,314.75 199,328.5C 198.311,327.643 197.478,326.977 196.5,326.5C 194.648,321.204 193.648,315.704 193.5,310C 194.397,305.673 194.23,301.506 193,297.5C 192.333,286.5 192.333,275.5 193,264.5C 193.323,261.859 194.323,259.525 196,257.5C 196.333,257.833 196.667,258.167 197,258.5C 197.199,256.598 198.033,255.098 199.5,254C 196.083,250.8 195.917,247.3 199,243.5C 199.374,244.416 199.874,245.25 200.5,246C 199.572,246.388 198.905,247.055 198.5,248C 200.136,252.312 200.969,256.812 201,261.5C 201.776,252.728 203.942,244.394 207.5,236.5C 206.726,235.289 205.893,235.289 205,236.5C 204.308,235.975 203.808,235.308 203.5,234.5C 204.262,234.089 205.262,233.923 206.5,234C 206.488,231.012 206.488,228.012 206.5,225C 207.436,222.099 208.603,221.932 210,224.5C 210.333,227.833 210.667,231.167 211,234.5C 211.333,234.167 211.667,233.833 212,233.5C 212.667,240.167 212.667,246.833 212,253.5C 211.667,251.5 211.333,249.5 211,247.5C 210.691,249.807 209.858,251.974 208.5,254C 209.5,255.667 210.833,257 212.5,258C 212.167,258.333 211.833,258.667 211.5,259C 212.747,261.016 214.081,262.849 215.5,264.5 Z"/></g>
<g><path style="opacity:1" fill="#10445f" d="M 139.5,248.5 C 139.334,255.175 139.5,261.842 140,268.5C 140.36,270.608 141.027,272.608 142,274.5C 147.604,281.141 150.77,288.808 151.5,297.5C 149.794,310.839 148.794,324.506 148.5,338.5C 141.451,337.31 135.118,334.476 129.5,330C 119.32,320.32 109.653,310.153 100.5,299.5C 101.833,299.5 103.167,299.5 104.5,299.5C 104.325,302.329 105.658,303.996 108.5,304.5C 110.004,309.677 113.337,312.677 118.5,313.5C 118.45,315.59 119.45,316.923 121.5,317.5C 124.499,313.171 125.166,308.504 123.5,303.5C 123.968,301.866 124.968,300.7 126.5,300C 125.941,299.275 125.608,298.442 125.5,297.5C 126.758,295.313 127.758,292.98 128.5,290.5C 128.392,289.558 128.059,288.725 127.5,288C 131.552,285.087 134.219,281.254 135.5,276.5C 136.315,277.429 137.148,278.429 138,279.5C 138.17,268.992 138.67,258.659 139.5,248.5 Z"/></g>
<g><path style="opacity:1" fill="#d5dbdb" d="M 401.5,265.5 C 400.716,272.205 399.716,278.872 398.5,285.5C 396.822,288.702 395.322,292.035 394,295.5C 375.935,320.904 352.768,340.071 324.5,353C 319.662,355.088 314.662,356.588 309.5,357.5C 306.562,357.432 303.895,356.766 301.5,355.5C 306.691,355.942 311.691,355.442 316.5,354C 313.845,355.26 312.012,354.426 311,351.5C 310.577,352.956 309.744,353.456 308.5,353C 307.878,344.804 307.878,336.137 308.5,327C 313.288,325.41 313.621,324.243 309.5,323.5C 311.167,323.167 312.833,322.833 314.5,322.5C 336.972,327.405 356.972,322.405 374.5,307.5C 371.752,306.356 369.919,307.356 369,310.5C 367.301,309.594 365.467,309.261 363.5,309.5C 367.792,306.838 372.126,304.171 376.5,301.5C 377.552,301.649 378.552,301.483 379.5,301C 382,297.833 384.5,294.667 387,291.5C 387.494,289.866 387.66,288.199 387.5,286.5C 385.486,286.392 383.82,287.058 382.5,288.5C 385.241,283.352 388.241,278.352 391.5,273.5C 392.425,272.359 393.259,272.359 394,273.5C 395,270.833 396,270.833 397,273.5C 397.317,271.699 397.984,271.366 399,272.5C 399.156,269.809 399.989,267.476 401.5,265.5 Z"/></g>
<g><path style="opacity:1" fill="#d7dcdc" d="M 236.5,318.5 C 241.429,323.28 245.929,328.613 250,334.5C 259.507,345.516 270.34,354.85 282.5,362.5C 283.429,363.689 283.762,365.022 283.5,366.5C 276.144,367.336 268.811,368.502 261.5,370C 251.922,370.818 242.422,370.651 233,369.5C 232.614,353.491 232.947,337.491 234,321.5C 235.045,320.627 235.878,319.627 236.5,318.5 Z"/></g>
<g><path style="opacity:1" fill="#e2e9ea" d="M 151.5,297.5 C 158.569,312.648 166.902,326.981 176.5,340.5C 177.229,345.13 177.563,349.797 177.5,354.5C 174.482,354.296 171.482,353.963 168.5,353.5C 161.931,350.546 155.598,347.046 149.5,343C 148.62,341.644 148.286,340.144 148.5,338.5C 148.794,324.506 149.794,310.839 151.5,297.5 Z"/></g>
<g><path style="opacity:0.361" fill="#7f8181" d="M 196.5,340.5 C 197.222,340.918 197.722,341.584 198,342.5C 198.498,345.817 198.665,349.15 198.5,352.5C 197.205,348.733 196.539,344.733 196.5,340.5 Z"/></g>
<g><path style="opacity:0.939" fill="#9da7a8" d="M 176.5,340.5 C 180.529,345.43 182.029,351.097 181,357.5C 180.586,357.957 180.086,358.291 179.5,358.5C 175.624,357.058 171.957,355.391 168.5,353.5C 171.482,353.963 174.482,354.296 177.5,354.5C 177.563,349.797 177.229,345.13 176.5,340.5 Z"/></g>
<g><path style="opacity:0.996" fill="#f1f2f1" d="M 52.5,508.5 C 46.5,508.5 40.5,508.5 34.5,508.5C 21.7113,506.865 11.5446,500.865 4,490.5C 3.33333,489.167 3.33333,487.833 4,486.5C 7.83333,482.667 11.6667,478.833 15.5,475C 18.3449,474.331 20.0116,475.497 20.5,478.5C 21.8821,481.526 23.2154,484.526 24.5,487.5C 28.8546,489.839 33.5213,491.172 38.5,491.5C 49.1688,493.077 57.3354,489.411 63,480.5C 65.3659,472.074 62.8659,465.574 55.5,461C 43.714,455.941 32.0474,450.607 20.5,445C 15.3621,441.37 12.0288,436.537 10.5,430.5C 9.78754,423.857 9.45421,417.191 9.5,410.5C 12.9912,398.176 20.9912,390.343 33.5,387C 50.8176,382.89 65.6509,387.057 78,399.5C 78.5103,401.829 77.8436,403.829 76,405.5C 72.9044,408.723 69.5711,411.723 66,414.5C 56.5241,404.339 45.3575,401.839 32.5,407C 25.9107,414.595 25.9107,422.262 32.5,430C 45.8699,435.568 58.8699,441.901 71.5,449C 84.4638,461.271 86.9638,475.438 79,491.5C 72.6186,501.058 63.7853,506.725 52.5,508.5 Z"/></g>
<g><path style="opacity:0.996" fill="#f1f3f3" d="M 475.5,442.5 C 470.105,442.267 464.772,442.6 459.5,443.5C 458.883,443.389 458.383,443.056 458,442.5C 451.228,412.694 432.728,400.194 402.5,405C 391.05,407.799 382.55,414.299 377,424.5C 374.507,430.16 372.341,435.826 370.5,441.5C 366.154,441.666 361.821,441.499 357.5,441C 356.376,440.751 355.376,440.251 354.5,439.5C 354.712,436.348 354.712,433.015 354.5,429.5C 354.338,427.473 354.505,425.473 355,423.5C 371.514,392.19 397.348,380.024 432.5,387C 452.883,393.385 466.716,406.552 474,426.5C 475.191,431.767 475.691,437.101 475.5,442.5 Z"/></g>
<g><path style="opacity:0.475" fill="#9ea3a4" d="M 189.5,405.5 C 189.5,400.167 189.5,394.833 189.5,389.5C 166.5,389.5 143.5,389.5 120.5,389.5C 120.824,396.354 120.491,403.021 119.5,409.5C 119.5,402.167 119.5,394.833 119.5,387.5C 142.836,387.333 166.169,387.5 189.5,388C 190.825,393.932 190.825,399.766 189.5,405.5 Z"/></g>
<g><path style="opacity:0.998" fill="#f2f4f4" d="M 189.5,405.5 C 172.164,406.769 154.831,406.769 137.5,405.5C 137.5,415.833 137.5,426.167 137.5,436.5C 150.833,436.5 164.167,436.5 177.5,436.5C 177.807,442.093 177.473,447.593 176.5,453C 163.131,453.142 149.798,453.809 136.5,455C 136.358,458.621 136.358,462.455 136.5,466.5C 136.5,474.833 136.5,483.167 136.5,491.5C 154.167,491.5 171.833,491.5 189.5,491.5C 190.833,496.833 190.833,502.167 189.5,507.5C 165.937,508.141 142.604,507.474 119.5,505.5C 118.891,473.393 118.891,441.393 119.5,409.5C 120.491,403.021 120.824,396.354 120.5,389.5C 143.5,389.5 166.5,389.5 189.5,389.5C 189.5,394.833 189.5,400.167 189.5,405.5 Z"/></g>
<g><path style="opacity:0.996" fill="#f5f7f7" d="M 324.5,438.5 C 324.667,450.505 324.5,462.505 324,474.5C 323.781,475.938 323.281,477.271 322.5,478.5C 316.991,472.791 311.491,467.124 306,461.5C 305.506,459.866 305.34,458.199 305.5,456.5C 306.41,434.334 307.076,412 307.5,389.5C 312.833,389.5 318.167,389.5 323.5,389.5C 323.17,406.009 323.504,422.342 324.5,438.5 Z"/></g>
<g><path style="opacity:0.995" fill="#f0f1f1" d="M 312.5,474.5 C 312.343,475.873 312.51,477.207 313,478.5C 315.969,481.484 319.135,484.151 322.5,486.5C 325.041,494.811 325.041,503.144 322.5,511.5C 311.879,502.381 301.713,492.714 292,482.5C 271.547,459.894 250.881,437.56 230,415.5C 229.333,414.167 228.667,412.833 228,411.5C 227.5,403.495 227,395.495 226.5,387.5C 227.552,387.351 228.552,387.517 229.5,388C 257.486,416.16 285.153,444.994 312.5,474.5 Z"/></g>
<g><path style="opacity:0.353" fill="#8b8c92" d="M 324.5,438.5 C 323.504,422.342 323.17,406.009 323.5,389.5C 318.167,389.5 312.833,389.5 307.5,389.5C 307.076,412 306.41,434.334 305.5,456.5C 305.333,434.164 305.5,411.831 306,389.5C 306.5,389 307,388.5 307.5,388C 313.084,387.194 318.584,387.361 324,388.5C 324.224,401.185 324.724,413.852 325.5,426.5C 324.726,430.465 324.393,434.465 324.5,438.5 Z"/></g>
<g><path style="opacity:0.4" fill="#a5a8aa" d="M 9.5,410.5 C 9.45421,417.191 9.78754,423.857 10.5,430.5C 7.07043,423.974 6.7371,417.307 9.5,410.5 Z"/></g>
<g><path style="opacity:0.995" fill="#f1f1f1" d="M 231.5,430.5 C 236.497,434.664 240.997,439.331 245,444.5C 245.667,465.5 245.667,486.5 245,507.5C 244,508.167 243,508.833 242,509.5C 237.263,508.531 232.43,508.197 227.5,508.5C 227.28,493.822 227.28,479.155 227.5,464.5C 228.331,453.007 228.831,441.341 229,429.5C 229.671,430.252 230.504,430.586 231.5,430.5 Z"/></g>
<g><path style="opacity:0.766" fill="#aaacae" d="M 354.5,429.5 C 354.712,433.015 354.712,436.348 354.5,439.5C 355.376,440.251 356.376,440.751 357.5,441C 361.821,441.499 366.154,441.666 370.5,441.5C 364.69,442.49 358.69,442.823 352.5,442.5C 352.156,437.878 352.823,433.545 354.5,429.5 Z"/></g>
<g><path style="opacity:1" fill="#3895a2" d="M 412.5,432.5 C 419.989,433.264 424.323,437.43 425.5,445C 423.3,455.267 417.3,458.434 407.5,454.5C 399.611,444.912 401.277,437.579 412.5,432.5 Z"/></g>
<g><path style="opacity:1" fill="#44ebfa" d="M 410.5,435.5 C 420.047,435.637 424.213,440.304 423,449.5C 420.103,454.155 415.937,455.655 410.5,454C 409.167,451.693 407.334,449.859 405,448.5C 404.333,446.167 404.333,443.833 405,441.5C 407.04,439.63 408.873,437.63 410.5,435.5 Z"/></g>
<g><path style="opacity:1" fill="#4d5960" d="M 475.5,442.5 C 475.5,446.5 475.5,450.5 475.5,454.5C 470.074,454.487 464.74,453.82 459.5,452.5C 458.141,453.624 457.141,454.958 456.5,456.5C 457.082,452.887 458.915,449.887 462,447.5C 462.483,446.552 462.649,445.552 462.5,444.5C 461.209,444.737 460.209,444.404 459.5,443.5C 464.772,442.6 470.105,442.267 475.5,442.5 Z"/></g>
<g><path style="opacity:0.995" fill="#f1f2f3" d="M 456.5,456.5 C 457.141,454.958 458.141,453.624 459.5,452.5C 464.74,453.82 470.074,454.487 475.5,454.5C 472.27,480.064 458.603,497.397 434.5,506.5C 427.934,507.891 421.268,508.558 414.5,508.5C 406.388,508.35 398.388,507.35 390.5,505.5C 372.942,497.773 361.109,484.773 355,466.5C 353.532,461.975 353.366,457.475 354.5,453C 359.864,452.171 365.198,452.337 370.5,453.5C 378.727,482.569 397.727,494.736 427.5,490C 442.422,483.287 452.089,472.12 456.5,456.5 Z"/></g>
<g><path style="opacity:0.216" fill="#a0a5ab" d="M 231.5,430.5 C 230.504,430.586 229.671,430.252 229,429.5C 228.831,441.341 228.331,453.007 227.5,464.5C 227.649,452.148 227.315,439.815 226.5,427.5C 228.933,427.273 230.599,428.273 231.5,430.5 Z"/></g>
<g><path style="opacity:0.231" fill="#787574" d="M 312.5,474.5 C 316.18,478.183 319.514,482.183 322.5,486.5C 319.135,484.151 315.969,481.484 313,478.5C 312.51,477.207 312.343,475.873 312.5,474.5 Z"/></g>
<g><path style="opacity:0.876" fill="#acadad" d="M 20.5,478.5 C 22.934,481.438 25.6007,484.271 28.5,487C 31.8153,488.83 35.1486,490.33 38.5,491.5C 33.5213,491.172 28.8546,489.839 24.5,487.5C 23.2154,484.526 21.8821,481.526 20.5,478.5 Z"/></g>
<g><path style="opacity:0.114" fill="#9c9ea0" d="M 136.5,466.5 C 137.492,474.316 137.826,482.316 137.5,490.5C 155.008,490.17 172.341,490.503 189.5,491.5C 171.833,491.5 154.167,491.5 136.5,491.5C 136.5,483.167 136.5,474.833 136.5,466.5 Z"/></g>
<g><path style="opacity:0.315" fill="#bdbfc1" d="M 119.5,505.5 C 142.604,507.474 165.937,508.141 189.5,507.5C 167.313,508.187 144.98,508.854 122.5,509.5C 120.085,509.281 119.085,507.948 119.5,505.5 Z"/></g>
<g><path style="opacity:0.298" fill="#8c8b8c" d="M 34.5,508.5 C 40.5,508.5 46.5,508.5 52.5,508.5C 46.5207,510.958 40.5207,510.958 34.5,508.5 Z"/></g>
<g><path style="opacity:0.502" fill="#b1b0b2" d="M 390.5,505.5 C 398.388,507.35 406.388,508.35 414.5,508.5C 421.268,508.558 427.934,507.891 434.5,506.5C 419.709,512.063 405.042,511.73 390.5,505.5 Z"/></g>
</svg>
